<?xml version="1.0" standalone="no"?>
<!DOCTYPE svg PUBLIC "-//W3C//DTD SVG 20010904//EN"
 "http://www.w3.org/TR/2001/REC-SVG-20010904/DTD/svg10.dtd">
<svg version="1.0" xmlns="http://www.w3.org/2000/svg"
 width="200.000000pt" height="200.000000pt" viewBox="0 0 200.000000 200.000000"
 preserveAspectRatio="xMidYMid meet">
<metadata>
Created by potrace 1.14, written by Peter Selinger 2001-2017
</metadata>
<g transform="translate(0.000000,200.000000) scale(0.100000,-0.100000)"
fill="#000000" stroke="none">
<path d="M0 1000 l0 -1000 1000 0 1000 0 0 1000 0 1000 -1000 0 -1000 0 0
-1000z m592 -359 l32 -28 -22 -12 c-18 -10 -25 -9 -38 4 -23 23 -68 16 -72
-11 -3 -18 6 -25 45 -39 74 -27 106 -70 87 -120 -9 -22 -57 -45 -94 -45 -65 0
-119 49 -83 76 15 11 21 10 39 -7 25 -23 82 -26 91 -3 8 21 -13 39 -72 61 -37
14 -52 26 -59 46 -30 85 75 142 146 78z m716 2 c14 -11 27 -24 29 -30 6 -18
-29 -24 -53 -8 -63 41 -144 -2 -144 -77 0 -53 35 -88 87 -88 38 0 83 22 83 41
0 5 -18 9 -40 9 -36 0 -40 3 -40 25 0 24 2 25 65 25 l65 0 0 -38 c0 -124 -189
-155 -252 -41 -53 96 24 217 131 206 24 -3 55 -13 69 -24z m-468 -3 c0 -17 -7
-20 -40 -20 l-39 0 -3 -112 c-3 -105 -4 -113 -23 -113 -19 0 -20 8 -23 113
l-3 112 -34 0 c-28 0 -35 4 -35 20 0 19 7 20 100 20 93 0 100 -1 100 -20z
m190 -107 c25 -70 47 -130 48 -135 2 -4 -7 -8 -21 -8 -16 0 -28 8 -35 25 -10
23 -17 25 -71 25 -53 0 -59 -2 -65 -23 -3 -15 -14 -23 -31 -25 -14 -1 -25 2
-25 7 0 5 18 60 40 123 22 62 42 119 45 126 2 6 19 12 38 12 l33 0 44 -127z
m540 107 c0 -18 -7 -20 -55 -20 l-55 0 0 -35 0 -35 50 0 c43 0 50 -3 50 -20 0
-17 -7 -20 -50 -20 l-50 0 0 -35 0 -35 56 0 c52 0 55 -1 52 -22 -3 -21 -9 -23
-80 -26 l-78 -4 0 136 0 136 80 0 c73 0 80 -2 80 -20z"/>
<path d="M946 590 c-3 -8 -12 -34 -20 -57 l-15 -43 41 0 c38 0 40 1 34 26 -14
53 -33 90 -40 74z"/>
</g>
</svg>
